<svg height="1198" width="720" xmlns="http://www.w3.org/2000/svg">
<rect height="1198" fill="#555" width="720"></rect>
<text fill="#7f7" font-family="Courier New" font-size="12" xml:space="preserve">
<tspan x="10" y="26">3 megabytes installed</tspan>
<tspan x="10" y="42"></tspan>
<tspan x="10" y="58">node_modules</tspan>
<tspan x="10" y="74">└─┬ download@5.0.3 </tspan>
<tspan x="10" y="90">  ├─┬ caw@2.0.0 </tspan>
<tspan x="10" y="106">  │ ├─┬ get-proxy@1.1.0 </tspan>
<tspan x="10" y="122">  │ │ └─┬ rc@1.2.1 </tspan>
<tspan x="10" y="138">  │ │   ├── deep-extend@0.4.1 </tspan>
<tspan x="10" y="154">  │ │   ├── ini@1.3.4 </tspan>
<tspan x="10" y="170">  │ │   ├── minimist@1.2.0 </tspan>
<tspan x="10" y="186">  │ │   └── strip-json-comments@2.0.1 </tspan>
<tspan x="10" y="202">  │ └── tunnel-agent@0.4.3 </tspan>
<tspan x="10" y="218">  ├─┬ decompress@4.1.0 </tspan>
<tspan x="10" y="234">  │ ├─┬ decompress-tar@4.1.0 </tspan>
<tspan x="10" y="250">  │ │ ├── file-type@3.9.0 </tspan>
<tspan x="10" y="266">  │ │ └─┬ tar-stream@1.5.2 </tspan>
<tspan x="10" y="282">  │ │   ├── bl@1.2.0 </tspan>
<tspan x="10" y="298">  │ │   ├─┬ end-of-stream@1.4.0 </tspan>
<tspan x="10" y="314">  │ │   │ └─┬ once@1.4.0 </tspan>
<tspan x="10" y="330">  │ │   │   └── wrappy@1.0.2 </tspan>
<tspan x="10" y="346">  │ │   ├─┬ readable-stream@2.2.9 </tspan>
<tspan x="10" y="362">  │ │   │ ├── buffer-shims@1.0.0 </tspan>
<tspan x="10" y="378">  │ │   │ ├── core-util-is@1.0.2 </tspan>
<tspan x="10" y="394">  │ │   │ ├── inherits@2.0.3 </tspan>
<tspan x="10" y="410">  │ │   │ ├── isarray@1.0.0 </tspan>
<tspan x="10" y="426">  │ │   │ ├── process-nextick-args@1.0.7 </tspan>
<tspan x="10" y="442">  │ │   │ ├── string_decoder@1.0.0 </tspan>
<tspan x="10" y="458">  │ │   │ └── util-deprecate@1.0.2 </tspan>
<tspan x="10" y="474">  │ │   └── xtend@4.0.1 </tspan>
<tspan x="10" y="490">  │ ├─┬ decompress-tarbz2@4.1.0 </tspan>
<tspan x="10" y="506">  │ │ ├─┬ seek-bzip@1.0.5 </tspan>
<tspan x="10" y="522">  │ │ │ └─┬ commander@2.8.1 </tspan>
<tspan x="10" y="538">  │ │ │   └── graceful-readlink@1.0.1 </tspan>
<tspan x="10" y="554">  │ │ └─┬ unbzip2-stream@1.0.11 </tspan>
<tspan x="10" y="570">  │ │   ├─┬ buffer@3.6.0 </tspan>
<tspan x="10" y="586">  │ │   │ ├── base64-js@0.0.8 </tspan>
<tspan x="10" y="602">  │ │   │ └── ieee754@1.1.8 </tspan>
<tspan x="10" y="618">  │ │   └── through@2.3.8 </tspan>
<tspan x="10" y="634">  │ ├── decompress-targz@4.0.0 </tspan>
<tspan x="10" y="650">  │ ├─┬ decompress-unzip@4.0.1 </tspan>
<tspan x="10" y="666">  │ │ ├─┬ get-stream@2.3.1 </tspan>
<tspan x="10" y="682">  │ │ │ ├── object-assign@4.1.1 </tspan>
<tspan x="10" y="698">  │ │ │ └─┬ pinkie-promise@2.0.1 </tspan>
<tspan x="10" y="714">  │ │ │   └── pinkie@2.0.4 </tspan>
<tspan x="10" y="730">  │ │ └─┬ yauzl@2.8.0 </tspan>
<tspan x="10" y="746">  │ │   ├── buffer-crc32@0.2.13 </tspan>
<tspan x="10" y="762">  │ │   └─┬ fd-slicer@1.0.1 </tspan>
<tspan x="10" y="778">  │ │     └── pend@1.2.0 </tspan>
<tspan x="10" y="794">  │ ├── graceful-fs@4.1.11 </tspan>
<tspan x="10" y="810">  │ └─┬ strip-dirs@2.0.0 </tspan>
<tspan x="10" y="826">  │   └── is-natural-number@4.0.1 </tspan>
<tspan x="10" y="842">  ├─┬ filenamify@2.0.0 </tspan>
<tspan x="10" y="858">  │ ├── filename-reserved-regex@2.0.0 </tspan>
<tspan x="10" y="874">  │ ├─┬ strip-outer@1.0.0 </tspan>
<tspan x="10" y="890">  │ │ └── escape-string-regexp@1.0.5 </tspan>
<tspan x="10" y="906">  │ └── trim-repeated@1.0.0 </tspan>
<tspan x="10" y="922">  ├── get-stream@3.0.0 </tspan>
<tspan x="10" y="938">  ├─┬ got@6.7.1 </tspan>
<tspan x="10" y="954">  │ ├─┬ create-error-class@3.0.2 </tspan>
<tspan x="10" y="970">  │ │ └── capture-stack-trace@1.0.0 </tspan>
<tspan x="10" y="986">  │ ├── duplexer3@0.1.4 </tspan>
<tspan x="10" y="1002">  │ ├── is-redirect@1.0.0 </tspan>
<tspan x="10" y="1018">  │ ├── is-retry-allowed@1.1.0 </tspan>
<tspan x="10" y="1034">  │ ├── is-stream@1.1.0 </tspan>
<tspan x="10" y="1050">  │ ├── lowercase-keys@1.0.0 </tspan>
<tspan x="10" y="1066">  │ ├── safe-buffer@5.0.1 </tspan>
<tspan x="10" y="1082">  │ ├── timed-out@4.0.1 </tspan>
<tspan x="10" y="1098">  │ ├── unzip-response@2.0.1 </tspan>
<tspan x="10" y="1114">  │ └─┬ url-parse-lax@1.0.0 </tspan>
<tspan x="10" y="1130">  │   └── prepend-http@1.0.4 </tspan>
<tspan x="10" y="1146">  ├─┬ mkdirp@0.5.1 </tspan>
<tspan x="10" y="1162">  │ └── minimist@0.0.8 </tspan>
<tspan x="10" y="1178">  └── pify@2.3.0</tspan>
</text>
</svg>
